<svg width="26" height="26" viewBox="0 0 26 26" fill="none" xmlns="http://www.w3.org/2000/svg">
<path d="M12.9991 0C9.5527 0.0038408 6.24856 1.37452 3.81159 3.81132C1.37462 6.24812 0.00384107 9.55203 0 12.9982L0 25.0931C0 25.3336 0.0955584 25.5643 0.265654 25.7344C0.435749 25.9044 0.666447 26 0.906998 26H12.9991C16.4471 26 19.754 24.6304 22.1921 22.1924C24.6303 19.7544 26 16.4478 26 13C26 9.55219 24.6303 6.24558 22.1921 3.80761C19.754 1.36964 16.4471 0 12.9991 0V0ZM12.9991 24.1861H1.814V12.9982C1.81471 10.7863 2.47132 8.62428 3.70079 6.7855C4.93026 4.94673 6.67738 3.51377 8.72126 2.66781C10.7651 1.82185 13.014 1.60088 15.1834 2.03284C17.3529 2.4648 19.3455 3.53029 20.9094 5.09459C22.4733 6.65889 23.5382 8.65175 23.9695 10.8212C24.4008 12.9906 24.1791 15.2392 23.3324 17.2827C22.4857 19.3262 21.0521 21.0727 19.2128 22.3015C17.3735 23.5303 15.2111 24.1861 12.9991 24.1861Z" fill="black"/>
<path d="M8.68115 14.0504C9.26221 14.0504 9.73326 13.5794 9.73326 12.9983C9.73326 12.4173 9.26221 11.9463 8.68115 11.9463C8.10008 11.9463 7.62903 12.4173 7.62903 12.9983C7.62903 13.5794 8.10008 14.0504 8.68115 14.0504Z" fill="black"/>
<path d="M12.9993 14.0504C13.5803 14.0504 14.0514 13.5794 14.0514 12.9983C14.0514 12.4173 13.5803 11.9463 12.9993 11.9463C12.4182 11.9463 11.9471 12.4173 11.9471 12.9983C11.9471 13.5794 12.4182 14.0504 12.9993 14.0504Z" fill="black"/>
<path d="M17.3199 14.0504C17.9009 14.0504 18.372 13.5794 18.372 12.9983C18.372 12.4173 17.9009 11.9463 17.3199 11.9463C16.7388 11.9463 16.2678 12.4173 16.2678 12.9983C16.2678 13.5794 16.7388 14.0504 17.3199 14.0504Z" fill="black"/>
</svg>
