<svg width="34" height="34" viewBox="0 0 34 34" fill="none" xmlns="http://www.w3.org/2000/svg">
<g filter="url(#filter0_b_0_293)">
<circle cx="17" cy="17" r="17" fill="#B8B8B8" fill-opacity="0.6"/>
</g>
<path d="M18.8656 22.6842C19.0473 22.6842 19.2215 22.6138 19.3499 22.4886C19.4784 22.3633 19.5505 22.1934 19.5505 22.0163V16.2244C19.5505 16.0473 19.4784 15.8774 19.3499 15.7521C19.2215 15.6269 19.0473 15.5565 18.8656 15.5565C18.6839 15.5565 18.5097 15.6269 18.3813 15.7521C18.2528 15.8774 18.1807 16.0473 18.1807 16.2244V22.0163C18.1807 22.1934 18.2528 22.3633 18.3813 22.4886C18.5097 22.6138 18.6839 22.6842 18.8656 22.6842V22.6842Z" fill="white"/>
<path d="M15.1293 22.6842C15.3109 22.6842 15.4851 22.6138 15.6136 22.4886C15.742 22.3633 15.8142 22.1934 15.8142 22.0163V16.2244C15.8142 16.0473 15.742 15.8774 15.6136 15.7521C15.4851 15.6269 15.3109 15.5565 15.1293 15.5565C14.9476 15.5565 14.7734 15.6269 14.6449 15.7521C14.5165 15.8774 14.4443 16.0473 14.4443 16.2244V22.0163C14.4443 22.1934 14.5165 22.3633 14.6449 22.4886C14.7734 22.6138 14.9476 22.6842 15.1293 22.6842V22.6842Z" fill="white"/>
<path d="M22.3151 9.7036H20.074V9.61811C20.0732 8.92396 19.7901 8.25845 19.2868 7.76761C18.7834 7.27677 18.1009 7.00071 17.389 7H16.6137C15.9023 7.00141 15.2205 7.27779 14.7177 7.76855C14.215 8.25931 13.9322 8.92442 13.9315 9.61811V9.70093H11.6849C10.4137 9.70093 9 10.8871 9 12.5862V13.3396C9 13.5167 9.07216 13.6866 9.20061 13.8118C9.32906 13.9371 9.50328 14.0075 9.68493 14.0075H10.3973L11.1781 25.3775C11.1899 25.5462 11.2668 25.7043 11.3934 25.8198C11.5201 25.9353 11.6869 25.9997 11.8603 26H22.1507C22.3241 25.9997 22.4909 25.9353 22.6175 25.8198C22.7441 25.7043 22.8211 25.5462 22.8329 25.3775L23.6027 14.0101H24.3151C24.4967 14.0101 24.6709 13.9398 24.7994 13.8145C24.9278 13.6893 25 13.5194 25 13.3422V12.5889C25.0027 10.8871 23.5863 9.7036 22.3151 9.7036ZM15.3014 9.61811C15.3021 9.27869 15.4405 8.95333 15.6864 8.71308C15.9322 8.47282 16.2656 8.33718 16.6137 8.33577H17.389C17.7376 8.33648 18.0717 8.47181 18.3181 8.71214C18.5646 8.95247 18.7034 9.27823 18.7041 9.61811V9.70093H15.3014V9.61811ZM10.3699 12.5889C10.3699 11.8862 10.9562 11.0394 11.6849 11.0394H22.3151C23.0438 11.0394 23.6301 11.8862 23.6301 12.5889V12.6744H10.3699V12.5889ZM21.5014 24.6642H12.5014L11.7699 14.0101H22.2301L21.5014 24.6642Z" fill="white"/>
<defs>
<filter id="filter0_b_0_293" x="-6" y="-6" width="46" height="46" filterUnits="userSpaceOnUse" color-interpolation-filters="sRGB">
<feFlood flood-opacity="0" result="BackgroundImageFix"/>
<feGaussianBlur in="BackgroundImage" stdDeviation="3"/>
<feComposite in2="SourceAlpha" operator="in" result="effect1_backgroundBlur_0_293"/>
<feBlend mode="normal" in="SourceGraphic" in2="effect1_backgroundBlur_0_293" result="shape"/>
</filter>
</defs>
</svg>
