<svg width="22" height="22" viewBox="0 0 22 22" fill="none" xmlns="http://www.w3.org/2000/svg">
<path d="M20.7855 2.48853e-08H1.21333C0.54315 0.000402857 -0.000134252 0.543955 2.48853e-08 1.2144V20.7866C0.000402857 21.4568 0.543955 22 1.2144 21.9999H11.7519V13.4921H8.8945V10.1621H11.7519V7.71138C11.7519 4.86941 13.4869 3.32255 16.022 3.32255C17.2363 3.32255 18.2798 3.41305 18.5839 3.45347V6.4238H16.8358C15.4565 6.4238 15.1894 7.07921 15.1894 8.04117V10.1621H18.4872L18.0575 13.4921H15.1894V21.9999H20.7855C21.4561 22 21.9998 21.4566 21.9999 20.7861C21.9999 20.7859 21.9999 20.7858 21.9999 20.7855V1.21333C21.9996 0.54315 21.456 -0.000134252 20.7855 2.48853e-08Z" fill="white"/>
</svg>
