<svg width="26" height="26" viewBox="0 0 26 26" fill="none" xmlns="http://www.w3.org/2000/svg">
<path d="M25.0699 25.9997H16.1319C15.891 25.9997 15.66 25.9033 15.4896 25.7316C15.3193 25.5599 15.2236 25.3271 15.2236 25.0843V18.2296C15.2236 17.6348 14.9891 17.0643 14.5718 16.6437C14.1544 16.2231 13.5884 15.9868 12.9982 15.9868C12.408 15.9868 11.8419 16.2231 11.4246 16.6437C11.0072 17.0643 10.7728 17.6348 10.7728 18.2296V25.077C10.7728 25.3198 10.6771 25.5526 10.5067 25.7243C10.3364 25.896 10.1054 25.9924 9.86445 25.9924H0.908329C0.667425 25.9924 0.436388 25.896 0.266043 25.7243C0.0956986 25.5526 0 25.3198 0 25.077L0 8.59932C3.33389e-05 8.44519 0.0386801 8.29357 0.112357 8.1585C0.186034 8.02344 0.292356 7.90931 0.421465 7.8267L12.4695 0.144445C12.6148 0.050753 12.7834 0.000654795 12.9559 6.37505e-06C13.1283 -0.000642045 13.2974 0.0481861 13.4433 0.140784L25.5749 7.83036C25.7052 7.91287 25.8126 8.02739 25.8869 8.16317C25.9613 8.29896 26.0002 8.45155 26 8.60664V25.0843C26 25.2064 25.9758 25.3273 25.9288 25.4398C25.8818 25.5523 25.813 25.6542 25.7263 25.7395C25.6396 25.8248 25.5369 25.8918 25.4242 25.9365C25.3114 25.9812 25.191 26.0027 25.0699 25.9997ZM17.0402 24.1689H24.1797V9.11196L12.96 2.00093L1.81666 9.11196V24.1689H8.95612V18.2296C8.95612 17.1492 9.38198 16.1131 10.14 15.3491C10.898 14.5851 11.9262 14.156 12.9982 14.156C14.0702 14.156 15.0983 14.5851 15.8564 15.3491C16.6144 16.1131 17.0402 17.1492 17.0402 18.2296V24.1689Z" fill="black"/>
</svg>
