<svg width="22" height="22" viewBox="0 0 22 22" fill="none" xmlns="http://www.w3.org/2000/svg">
<path d="M11.0149 13.7236C12.5236 13.7236 13.7465 12.5026 13.7465 10.9965C13.7465 9.49033 12.5236 8.26935 11.0149 8.26935C9.50631 8.26935 8.28333 9.49033 8.28333 10.9965C8.28333 12.5026 9.50631 13.7236 11.0149 13.7236Z" fill="white"/>
<path d="M17.4251 6.16907C17.2928 5.81182 17.082 5.48868 16.8083 5.22337C16.5433 4.9492 16.2194 4.73864 15.861 4.60756C15.3664 4.43047 14.8445 4.34116 14.319 4.34365C13.4599 4.34365 13.2176 4.34365 11.0146 4.34365C8.81174 4.34365 8.55841 4.34365 7.71029 4.34365C7.19094 4.35119 6.67677 4.4479 6.19028 4.62956C5.83228 4.76132 5.50854 4.97178 5.24304 5.24536C4.96782 5.50945 4.75682 5.83295 4.62622 6.19106C4.44488 6.6731 4.348 7.18272 4.33984 7.69758C4.33984 8.5553 4.33984 8.79723 4.33984 10.9965C4.33984 13.1958 4.33984 13.4377 4.33984 14.2955C4.34463 14.8214 4.44155 15.3424 4.62622 15.835C4.75854 16.1922 4.9693 16.5154 5.24304 16.7807C5.50806 17.0548 5.83194 17.2654 6.19028 17.3965C6.67732 17.5748 7.19155 17.6678 7.71029 17.6714C8.56942 17.6714 8.81174 17.6714 11.0146 17.6714C13.2176 17.6714 13.4599 17.6714 14.319 17.6714C14.8384 17.6641 15.3526 17.5673 15.839 17.3855C16.1947 17.2491 16.5177 17.0396 16.7872 16.7706C17.0566 16.5016 17.2664 16.1791 17.4031 15.824C17.5905 15.3356 17.6911 14.8184 17.7005 14.2955C17.7005 13.4267 17.7005 13.1958 17.7005 10.9965C17.7005 8.79723 17.7005 8.5553 17.7005 7.69758C17.6979 7.17601 17.6048 6.65883 17.4251 6.16907ZM11.0146 15.2082C10.1803 15.2082 9.36468 14.9612 8.67094 14.4984C7.9772 14.0356 7.4365 13.3778 7.1172 12.6083C6.79791 11.8387 6.71437 10.9919 6.87714 10.1749C7.03992 9.35789 7.4417 8.60744 8.03167 8.01843C8.62165 7.42942 9.37333 7.0283 10.1916 6.86579C11.01 6.70329 11.8582 6.78669 12.629 7.10546C13.3999 7.42423 14.0587 7.96405 14.5223 8.65665C14.9858 9.34926 15.2332 10.1635 15.2332 10.9965C15.2332 12.1135 14.7888 13.1848 13.9976 13.9746C13.2065 14.7645 12.1335 15.2082 11.0146 15.2082ZM15.4205 7.60961C15.2276 7.61166 15.0383 7.55684 14.8765 7.45202C14.7146 7.34719 14.5874 7.19702 14.5106 7.02032C14.4339 6.84361 14.4111 6.64822 14.445 6.45863C14.479 6.26904 14.5683 6.09367 14.7016 5.95448C14.835 5.8153 15.0065 5.71849 15.1947 5.67619C15.3829 5.63388 15.5794 5.64796 15.7596 5.71665C15.9399 5.78535 16.0958 5.90561 16.2079 6.06238C16.32 6.21914 16.3832 6.40543 16.3897 6.59793C16.3942 6.72828 16.3724 6.8582 16.3258 6.98004C16.2792 7.10189 16.2087 7.21321 16.1184 7.30746C16.0281 7.40172 15.9198 7.477 15.8 7.52888C15.6801 7.58077 15.5511 7.60821 15.4205 7.60961Z" fill="white"/>
<path d="M21.9299 0.736765C21.8367 0.521212 21.6833 0.337059 21.4879 0.206382C21.2926 0.0757053 21.0636 0.00404809 20.8285 0L1.2116 0C1.1063 0.00809802 1.00257 0.0302897 0.903191 0.0659789C0.848176 0.0624203 0.792988 0.0624203 0.737974 0.0659789C0.648892 0.121115 0.567427 0.18766 0.495654 0.263916C0.445959 0.289925 0.398116 0.319318 0.352465 0.351888C0.306458 0.410386 0.265903 0.472959 0.231305 0.538828C0.180722 0.600224 0.136442 0.666536 0.0991308 0.736765C0.0926771 0.809933 0.0926771 0.883526 0.0991308 0.956694C0.0562361 1.03681 0.0229624 1.12171 0 1.20961H0V20.7834C0 20.7834 0 20.7834 0 20.8603C0.00647338 21.1034 0.0868518 21.3388 0.230464 21.5352C0.374076 21.7316 0.574128 21.8798 0.804061 21.96C0.936981 21.9944 1.07486 22.0055 1.2116 21.993H20.8175C20.8871 21.9996 20.9571 21.9996 21.0267 21.993C21.1146 22.0023 21.2032 22.0023 21.2911 21.993C21.3828 21.9455 21.4679 21.8863 21.5444 21.817C21.5903 21.7905 21.6344 21.7611 21.6766 21.7291C21.7513 21.6464 21.8143 21.5539 21.8638 21.4541C21.8916 21.419 21.9174 21.3823 21.9409 21.3442C21.9705 21.2514 21.9889 21.1554 21.996 21.0583C22.0013 20.9961 22.0013 20.9335 21.996 20.8713V1.20961C22.0057 1.04918 21.9832 0.888432 21.9299 0.736765ZM19.1763 14.3724C19.1617 15.0529 19.0314 15.7259 18.7908 16.3628C18.5799 16.9073 18.2574 17.4019 17.8439 17.8147C17.4304 18.2275 16.9351 18.5495 16.3896 18.76C15.7518 19.0006 15.0776 19.1308 14.396 19.1449C13.5148 19.1449 13.2945 19.1449 11.0145 19.1449C8.73452 19.1449 8.50322 19.1449 7.63307 19.1449C6.95148 19.1303 6.27733 19.0002 5.63944 18.76C5.09434 18.5489 4.59929 18.2267 4.18586 17.814C3.77244 17.4012 3.44971 16.907 3.23827 16.3628C2.99728 15.726 2.86691 15.0529 2.85276 14.3724C2.85276 13.4927 2.85276 13.2728 2.85276 10.9965C2.85276 8.72021 2.85276 8.48929 2.85276 7.62057C2.86734 6.94009 2.9977 6.26705 3.23827 5.6302C3.44505 5.0836 3.76825 4.58835 4.18552 4.17867C4.5952 3.76125 5.09146 3.43846 5.63944 3.23297C6.27727 2.99258 6.95146 2.86243 7.63307 2.84809C8.51423 2.84809 8.73452 2.84809 11.0145 2.84809C13.2945 2.84809 13.5258 2.84809 14.407 2.84809C15.0886 2.86264 15.7627 2.99279 16.4006 3.23297C16.9457 3.44406 17.4408 3.76626 17.8542 4.17901C18.2676 4.59175 18.5904 5.08599 18.8018 5.6302C19.0426 6.26699 19.173 6.94007 19.1873 7.62057C19.1873 8.48929 19.1873 8.72021 19.1873 10.9965C19.1873 13.2728 19.2093 13.5037 19.1763 14.3724Z" fill="white"/>
</svg>
