<svg width="176" height="26" viewBox="0 0 176 26" fill="none" xmlns="http://www.w3.org/2000/svg">
<path d="M7.36745 22.0193C7.36745 22.8393 7.43311 23.4344 7.56444 23.8047C7.69577 24.175 7.94529 24.4262 8.313 24.5585C8.70698 24.6907 9.32422 24.7569 10.1647 24.7569C10.2435 24.7569 10.2829 24.8362 10.2829 24.9949C10.2829 25.1536 10.2435 25.233 10.1647 25.233C9.29796 25.233 8.61506 25.2197 8.11601 25.1933L5.12176 25.1536L2.20629 25.1933C1.68099 25.2197 0.97182 25.233 0.0787962 25.233C0.0262653 25.233 0 25.1536 0 24.9949C0 24.8362 0.0262653 24.7569 0.0787962 24.7569C0.919289 24.7569 1.53653 24.6907 1.93051 24.5585C2.32449 24.4262 2.58714 24.175 2.71847 23.8047C2.87606 23.4079 2.95486 22.8128 2.95486 22.0193V3.65005C2.95486 2.85656 2.87606 2.27467 2.71847 1.90438C2.58714 1.53408 2.32449 1.28281 1.93051 1.15056C1.53653 0.991861 0.919289 0.912512 0.0787962 0.912512C0.0262653 0.912512 0 0.833163 0 0.674466C0 0.515769 0.0262653 0.43642 0.0787962 0.43642L2.20629 0.476094C3.4145 0.528992 4.38632 0.555442 5.12176 0.555442C5.93598 0.555442 6.9472 0.528992 8.15541 0.476094L10.1647 0.43642C10.2435 0.43642 10.2829 0.515769 10.2829 0.674466C10.2829 0.833163 10.2435 0.912512 10.1647 0.912512C9.35049 0.912512 8.74638 0.991861 8.3524 1.15056C7.95842 1.30926 7.69577 1.58698 7.56444 1.98372C7.43311 2.35402 7.36745 2.93591 7.36745 3.7294V22.0193Z" fill="white"/>
<path d="M46.6788 24.7569C46.7313 24.7569 46.7576 24.8362 46.7576 24.9949C46.7576 25.1536 46.7313 25.233 46.6788 25.233C45.7857 25.233 45.0766 25.2197 44.5513 25.1933L41.6358 25.1536L38.681 25.1933C38.1819 25.2197 37.499 25.233 36.6322 25.233C36.5535 25.233 36.5141 25.1536 36.5141 24.9949C36.5141 24.8362 36.5535 24.7569 36.6322 24.7569C37.7354 24.7569 38.484 24.6246 38.8779 24.3601C39.2719 24.0956 39.4689 23.5402 39.4689 22.6938L39.4295 22.0193L38.6022 5.79247L30.4861 24.9552C30.4336 25.061 30.3285 25.1139 30.171 25.1139C30.0134 25.1139 29.9083 25.061 29.8558 24.9552L19.888 5.87182L19.5729 20.1943C19.5466 21.6226 19.8224 22.7467 20.4002 23.5666C21.0043 24.3601 21.8448 24.7569 22.9217 24.7569C23.0005 24.7569 23.0399 24.8362 23.0399 24.9949C23.0399 25.1536 23.0005 25.233 22.9217 25.233C22.2125 25.233 21.661 25.2197 21.267 25.1933L19.1001 25.1536L16.618 25.1933C16.1978 25.2197 15.633 25.233 14.9239 25.233C14.8451 25.233 14.8057 25.1536 14.8057 24.9949C14.8057 24.8362 14.8451 24.7569 14.9239 24.7569C16.0008 24.7569 16.8544 24.3469 17.4848 23.527C18.1151 22.707 18.4434 21.5961 18.4697 20.1943L18.8243 3.76907L18.7849 3.7294C18.2596 2.75076 17.708 2.03662 17.1302 1.58698C16.5786 1.13733 15.9351 0.912512 15.1997 0.912512C15.1209 0.912512 15.0815 0.833163 15.0815 0.674466C15.0815 0.515769 15.1209 0.43642 15.1997 0.43642L17.0514 0.476094C17.4191 0.502543 17.8919 0.515768 18.4697 0.515768L20.5578 0.476094C20.7942 0.449645 21.0963 0.43642 21.464 0.43642C21.8054 0.43642 22.0681 0.555442 22.2519 0.793488C22.4358 1.03153 22.7772 1.6002 23.2763 2.49949L31.8651 18.7263L39.3507 1.42828C39.5083 1.05799 39.6659 0.806714 39.8235 0.674466C40.0074 0.515769 40.2437 0.43642 40.5327 0.43642C40.7691 0.43642 41.0317 0.449645 41.3206 0.476094C41.6358 0.502543 41.9904 0.515768 42.3844 0.515768L44.7089 0.476094C45.0766 0.449645 45.6019 0.43642 46.2848 0.43642C46.3636 0.43642 46.403 0.515769 46.403 0.674466C46.403 0.833163 46.3636 0.912512 46.2848 0.912512C45.0503 0.912512 44.1573 1.16378 43.6057 1.66633C43.0541 2.16887 42.8046 2.94913 42.8572 4.00712L43.8027 22.0193C43.8552 22.8393 43.9472 23.4344 44.0785 23.8047C44.2361 24.175 44.4987 24.4262 44.8665 24.5585C45.2604 24.6907 45.8645 24.7569 46.6788 24.7569Z" fill="white"/>
<path d="M77.8593 24.7569C77.9906 24.7569 78.0563 24.8362 78.0563 24.9949C78.0563 25.1536 77.9906 25.233 77.8593 25.233C77.334 25.233 76.5198 25.2065 75.4166 25.1536C74.2609 25.1007 73.4336 25.0743 72.9345 25.0743C72.2779 25.0743 71.4768 25.1007 70.5312 25.1536C69.6382 25.2065 68.9291 25.233 68.4037 25.233C68.2987 25.233 68.2462 25.1536 68.2462 24.9949C68.2462 24.8362 68.2987 24.7569 68.4037 24.7569C69.0866 24.7569 69.5726 24.6907 69.8615 24.5585C70.1767 24.3998 70.3343 24.1353 70.3343 23.765C70.3343 23.3154 70.0716 22.5615 69.5463 21.5036L65.4489 13.3703H58.436L55.6388 19.5992C55.2973 20.3662 55.1266 21.0804 55.1266 21.7416C55.1266 22.6938 55.4549 23.4344 56.1115 23.9634C56.7944 24.4924 57.7006 24.7569 58.83 24.7569C58.9613 24.7569 59.027 24.8362 59.027 24.9949C59.027 25.1536 58.9613 25.233 58.83 25.233C58.3572 25.233 57.6743 25.2065 56.7813 25.1536C55.7832 25.1007 54.9165 25.0743 54.181 25.0743C53.4719 25.0743 52.6182 25.1007 51.6202 25.1536C50.7271 25.2065 50.0048 25.233 49.4533 25.233C49.3482 25.233 49.2957 25.1536 49.2957 24.9949C49.2957 24.8362 49.3482 24.7569 49.4533 24.7569C50.1887 24.7569 50.8059 24.6114 51.305 24.3204C51.804 24.003 52.3031 23.4608 52.8021 22.6938C53.3011 21.9003 53.8921 20.7365 54.575 19.2024L63.1244 0.277722C63.1769 0.198372 63.2951 0.158697 63.479 0.158697C63.6891 0.158697 63.8073 0.198372 63.8336 0.277722L73.6831 19.7976C74.6024 21.6755 75.3641 22.9715 75.9682 23.6857C76.5723 24.3998 77.2027 24.7569 77.8593 24.7569ZM58.9482 12.2594H64.8973L61.7455 5.99084L58.9482 12.2594Z" fill="white"/>
<path d="M95.4349 25.7091C92.5457 25.7091 90.0242 25.1536 87.8704 24.0427C85.7167 22.9318 84.0751 21.4242 82.9457 19.5198C81.8162 17.589 81.2515 15.4466 81.2515 13.0926C81.2515 10.5534 81.895 8.29196 83.182 6.30824C84.4953 4.29807 86.2814 2.75076 88.5402 1.66633C90.8253 0.555441 93.373 0 96.1834 0C97.4179 0 98.6655 0.105798 99.9262 0.317395C101.187 0.502542 102.198 0.753814 102.96 1.07121C103.196 1.15056 103.341 1.25636 103.393 1.38861C103.472 1.4944 103.525 1.69278 103.551 1.98372L104.063 7.49847C104.063 7.57782 103.997 7.63072 103.866 7.65717C103.735 7.68362 103.643 7.64395 103.59 7.53815C102.671 5.50153 101.397 3.91455 99.7686 2.77721C98.1665 1.63988 96.3279 1.07121 94.2529 1.07121C91.5738 1.07121 89.5251 2.01017 88.1068 3.8881C86.7147 5.76602 86.0187 8.33164 86.0187 11.5849C86.0187 14.2035 86.4652 16.5442 87.3582 18.6073C88.2513 20.6439 89.4857 22.2309 91.0617 23.3683C92.6639 24.4791 94.4499 25.0346 96.4198 25.0346C97.4967 25.0346 98.3241 24.9156 98.9019 24.6775C99.4797 24.4395 99.9 23.9766 100.163 23.2889C100.425 22.6012 100.557 21.5829 100.557 20.234C100.557 18.8586 100.478 17.9064 100.32 17.3774C100.163 16.822 99.8212 16.4517 99.2959 16.2665C98.7968 16.0814 97.9169 15.9888 96.6562 15.9888C96.4986 15.9888 96.4198 15.883 96.4198 15.6714C96.4198 15.5921 96.4329 15.5259 96.4592 15.473C96.5117 15.3937 96.5643 15.354 96.6168 15.354C98.8494 15.4863 100.649 15.5524 102.014 15.5524C103.354 15.5524 104.746 15.5127 106.191 15.4334C106.243 15.4334 106.282 15.473 106.309 15.5524C106.361 15.6053 106.388 15.6582 106.388 15.7111C106.388 15.8962 106.322 15.9888 106.191 15.9888C105.718 15.9624 105.389 16.0549 105.206 16.2665C105.022 16.4517 104.904 16.8484 104.851 17.4568C104.798 18.0387 104.772 19.0966 104.772 20.6307C104.772 21.821 104.812 22.6673 104.89 23.1699C104.995 23.6724 105.048 23.9898 105.048 24.1221C105.048 24.2808 105.009 24.3866 104.93 24.4395C104.877 24.4924 104.759 24.5453 104.575 24.5982C101.187 25.3388 98.1402 25.7091 95.4349 25.7091Z" fill="white"/>
<path d="M118.552 22.0193C118.552 22.8393 118.617 23.4344 118.749 23.8047C118.88 24.175 119.13 24.4262 119.497 24.5585C119.891 24.6907 120.508 24.7569 121.349 24.7569C121.428 24.7569 121.467 24.8362 121.467 24.9949C121.467 25.1536 121.428 25.233 121.349 25.233C120.482 25.233 119.799 25.2197 119.3 25.1933L116.306 25.1536L113.391 25.1933C112.865 25.2197 112.156 25.233 111.263 25.233C111.211 25.233 111.184 25.1536 111.184 24.9949C111.184 24.8362 111.211 24.7569 111.263 24.7569C112.104 24.7569 112.721 24.6907 113.115 24.5585C113.509 24.4262 113.771 24.175 113.903 23.8047C114.06 23.4079 114.139 22.8128 114.139 22.0193V3.65005C114.139 2.85656 114.06 2.27467 113.903 1.90438C113.771 1.53408 113.509 1.28281 113.115 1.15056C112.721 0.991861 112.104 0.912512 111.263 0.912512C111.211 0.912512 111.184 0.833163 111.184 0.674466C111.184 0.515769 111.211 0.43642 111.263 0.43642L113.391 0.476094C114.599 0.528992 115.571 0.555442 116.306 0.555442C117.12 0.555442 118.131 0.528992 119.34 0.476094L121.349 0.43642C121.428 0.43642 121.467 0.515769 121.467 0.674466C121.467 0.833163 121.428 0.912512 121.349 0.912512C120.535 0.912512 119.931 0.991861 119.537 1.15056C119.143 1.30926 118.88 1.58698 118.749 1.98372C118.617 2.35402 118.552 2.93591 118.552 3.7294V22.0193Z" fill="white"/>
<path d="M153.529 0.43642C153.582 0.43642 153.608 0.515769 153.608 0.674466C153.608 0.833163 153.582 0.912512 153.529 0.912512C152.479 0.912512 151.651 1.33571 151.047 2.1821C150.443 3.00203 150.141 4.11292 150.141 5.51475V25.8281C150.141 25.9074 150.075 25.9603 149.944 25.9868C149.839 26.0132 149.76 26 149.708 25.9471L131.23 4.76094V20.1943C131.23 21.5961 131.519 22.707 132.097 23.527C132.674 24.3469 133.476 24.7569 134.5 24.7569C134.552 24.7569 134.579 24.8362 134.579 24.9949C134.579 25.1536 134.552 25.233 134.5 25.233C133.765 25.233 133.2 25.2197 132.806 25.1933L130.678 25.1536L128.236 25.1933C127.789 25.2197 127.146 25.233 126.305 25.233C126.226 25.233 126.187 25.1536 126.187 24.9949C126.187 24.8362 126.226 24.7569 126.305 24.7569C127.461 24.7569 128.367 24.3469 129.024 23.527C129.706 22.707 130.048 21.5961 130.048 20.1943V3.412C129.181 2.45982 128.433 1.8118 127.802 1.46795C127.198 1.09766 126.568 0.912512 125.911 0.912512C125.859 0.912512 125.832 0.833163 125.832 0.674466C125.832 0.515769 125.859 0.43642 125.911 0.43642L127.566 0.476094C127.907 0.502543 128.406 0.515768 129.063 0.515768L132.057 0.476094C132.425 0.449645 132.871 0.43642 133.397 0.43642C133.607 0.43642 133.764 0.489318 133.87 0.595115C133.975 0.700914 134.158 0.925737 134.421 1.26958C134.868 1.87792 135.183 2.28789 135.367 2.49949L148.998 18.3296V5.51475C148.998 4.08647 148.71 2.96236 148.132 2.14242C147.554 1.32248 146.753 0.912512 145.728 0.912512C145.676 0.912512 145.65 0.833163 145.65 0.674466C145.65 0.515769 145.676 0.43642 145.728 0.43642L147.423 0.476094C148.263 0.528992 148.972 0.555442 149.55 0.555442C150.075 0.555442 150.811 0.528992 151.756 0.476094L153.529 0.43642Z" fill="white"/>
<path d="M175.527 18.9247C175.527 18.8718 175.58 18.8454 175.685 18.8454C175.764 18.8454 175.829 18.8718 175.882 18.9247C175.961 18.9512 176 18.9776 176 19.0041C175.737 21.0671 175.606 22.9451 175.606 24.6378C175.606 24.8494 175.567 25.0081 175.488 25.1139C175.409 25.1933 175.251 25.233 175.015 25.233H157.601C157.522 25.233 157.483 25.1536 157.483 24.9949C157.483 24.8362 157.522 24.7569 157.601 24.7569C158.442 24.7569 159.046 24.6907 159.413 24.5585C159.807 24.4262 160.07 24.175 160.201 23.8047C160.333 23.4079 160.398 22.8128 160.398 22.0193V3.65005C160.398 2.85656 160.333 2.27467 160.201 1.90438C160.07 1.53408 159.807 1.28281 159.413 1.15056C159.019 0.991861 158.415 0.912512 157.601 0.912512C157.522 0.912512 157.483 0.833163 157.483 0.674466C157.483 0.515769 157.522 0.43642 157.601 0.43642H174.306C174.569 0.43642 174.7 0.555442 174.7 0.793488L174.779 6.07019C174.779 6.12309 174.7 6.16277 174.542 6.18922C174.411 6.21567 174.332 6.18922 174.306 6.10987C173.886 4.57579 173.176 3.43845 172.178 2.69786C171.18 1.95727 169.867 1.58698 168.239 1.58698H167.057C166.269 1.58698 165.691 1.7589 165.323 2.10275C164.955 2.44659 164.772 2.97558 164.772 3.68972V11.7833H168.042C169.565 11.7833 170.734 11.5188 171.548 10.9898C172.362 10.4608 172.769 9.72024 172.769 8.76806C172.769 8.68871 172.835 8.64903 172.966 8.64903C173.124 8.64903 173.203 8.68871 173.203 8.76806L173.163 12.3388L173.203 14.2431C173.255 15.1424 173.282 15.8566 173.282 16.3856C173.282 16.4385 173.203 16.4649 173.045 16.4649C172.888 16.4649 172.809 16.4385 172.809 16.3856C172.809 15.3011 172.389 14.4547 171.548 13.8464C170.734 13.2116 169.552 12.8942 168.002 12.8942H164.772V21.8606C164.772 22.6277 164.916 23.1963 165.205 23.5666C165.494 23.9369 165.953 24.1221 166.584 24.1221H167.884C169.933 24.1221 171.574 23.6989 172.809 22.8525C174.043 22.0061 174.949 20.6968 175.527 18.9247Z" fill="white"/>
</svg>
