<svg width="25" height="26" viewBox="0 0 25 26" fill="none" xmlns="http://www.w3.org/2000/svg">
<path d="M23.433 14.6182L22.4343 13.9309V13.88C22.4637 13.5564 22.4783 13.2691 22.4783 13C22.4783 12.7309 22.4783 12.4436 22.4343 12.12V12.0691L23.433 11.3818C24.0388 10.9603 24.4641 10.3302 24.6257 9.61469C24.7873 8.89916 24.6736 8.14966 24.3069 7.51273L23.1319 5.48727C22.7583 4.85371 22.1594 4.38105 21.4525 4.16179C20.7455 3.94253 19.9813 3.99246 19.3096 4.30182L18.186 4.82545L18.1419 4.79636C17.6647 4.46896 17.1598 4.18304 16.6328 3.94182L16.5851 3.92L16.4823 2.68727C16.4175 1.9579 16.0807 1.27857 15.5376 0.781744C14.9946 0.28492 14.2841 0.00622346 13.5448 0L11.1691 0C10.4298 0.00622346 9.71937 0.28492 9.17629 0.781744C8.63322 1.27857 8.29645 1.9579 8.23167 2.68727L8.12519 3.97455L8.07746 4C7.56531 4.23516 7.07401 4.5125 6.60873 4.82909L6.56467 4.85818L5.375 4.30545C4.70571 4.00103 3.94618 3.95337 3.24344 4.1717C2.54071 4.39002 1.94477 4.8588 1.57099 5.48727L0.392333 7.51273C0.0256061 8.14966 -0.0880624 8.89916 0.0735499 9.61469C0.235162 10.3302 0.660435 10.9603 1.26623 11.3818L2.36777 12.1382V12.1891C2.34574 12.48 2.33106 12.7455 2.33106 12.9964C2.33106 13.2473 2.33105 13.5127 2.36777 13.8036V13.8545L1.26623 14.6109C0.659218 15.0332 0.233197 15.6646 0.0715611 16.3816C-0.0900747 17.0985 0.0243134 17.8494 0.392333 18.4873L1.57099 20.5091C1.94458 21.1427 2.54348 21.6153 3.25046 21.8346C3.95744 22.0538 4.7216 22.0039 5.39336 21.6945L6.58303 21.1382L6.62709 21.1673C7.08623 21.4855 7.57137 21.7653 8.07746 22.0036L8.12519 22.0255L8.23167 23.3127C8.29645 24.0421 8.63322 24.7214 9.17629 25.2183C9.71937 25.7151 10.4298 25.9938 11.1691 26H13.5264C14.2657 25.9938 14.9762 25.7151 15.5193 25.2183C16.0624 24.7214 16.3991 24.0421 16.4639 23.3127L16.5667 22.08L16.6144 22.0582C17.1413 21.8167 17.6462 21.5308 18.1236 21.2036L18.1676 21.1745L19.2912 21.6982C19.965 22.0128 20.7335 22.0656 21.4447 21.8461C22.1558 21.6266 22.758 21.1508 23.1319 20.5127L24.3106 18.4909C24.6772 17.853 24.7904 17.1026 24.6281 16.3865C24.4658 15.6703 24.0397 15.0398 23.433 14.6182ZM22.6987 17.5745L21.52 19.5964C21.3821 19.8358 21.1577 20.0147 20.8921 20.097C20.6264 20.1793 20.3391 20.1589 20.088 20.04L17.9547 19.04L17.5067 19.4036C16.8606 19.9096 16.1415 20.3165 15.3734 20.6109L14.8336 20.8182L14.6353 23.1709C14.614 23.4455 14.4886 23.702 14.2843 23.8888C14.08 24.0756 13.8119 24.179 13.5338 24.1782H11.1691C10.891 24.179 10.6229 24.0756 10.4186 23.8888C10.2143 23.702 10.0889 23.4455 10.0676 23.1709L9.85462 20.7927L9.33322 20.5709C8.58994 20.2743 7.89466 19.8712 7.26966 19.3745L6.81802 19.0109L4.61493 20.0436C4.3638 20.1626 4.07653 20.1829 3.81086 20.1006C3.5452 20.0183 3.32085 19.8395 3.18292 19.6L1.99325 17.5709C1.85133 17.3326 1.80613 17.0498 1.86681 16.7798C1.92748 16.5097 2.08949 16.2726 2.32004 16.1164L4.34321 14.7273L4.26243 14.1818C4.1496 13.4052 4.1496 12.6166 4.26243 11.84L4.34321 11.2727L2.32004 9.88C2.08949 9.72378 1.92748 9.48664 1.86681 9.21659C1.80613 8.94654 1.85133 8.66375 1.99325 8.42546L3.1719 6.40364C3.30983 6.16419 3.53418 5.98533 3.79985 5.90302C4.06551 5.82072 4.35279 5.84108 4.60391 5.96L6.80701 6.99273L7.25864 6.62909C7.88854 6.13934 8.58749 5.74362 9.33322 5.45455L9.86196 5.24364L10.0639 2.85455C10.0852 2.57995 10.2106 2.3235 10.4149 2.13668C10.6193 1.94985 10.8874 1.84646 11.1655 1.84727H13.5228C13.8009 1.84646 14.069 1.94985 14.2733 2.13668C14.4776 2.3235 14.603 2.57995 14.6243 2.85455L14.8226 5.20727L15.3624 5.41455C16.1306 5.70867 16.8498 6.11565 17.4957 6.62182L17.9436 6.98545L20.0843 5.98545C20.3354 5.86653 20.6227 5.84618 20.8884 5.92848C21.1541 6.01078 21.3784 6.18964 21.5163 6.42909L22.695 8.45091C22.8369 8.6892 22.8821 8.972 22.8214 9.24205C22.7608 9.5121 22.5987 9.74923 22.3682 9.90545L20.4515 11.2036L20.5396 11.7673C20.6642 12.5845 20.6642 13.4155 20.5396 14.2327L20.4515 14.7964L22.3792 16.12C22.6088 16.2761 22.7701 16.5126 22.8308 16.7818C22.8914 17.051 22.8468 17.333 22.706 17.5709L22.6987 17.5745Z" fill="black"/>
<path d="M12.4021 8.05444C11.4145 8.05444 10.449 8.34449 9.62779 8.8879C8.80658 9.43132 8.16653 10.2037 7.78857 11.1074C7.41061 12.011 7.31172 13.0054 7.5044 13.9647C7.69708 14.924 8.17269 15.8052 8.87106 16.4969C9.56944 17.1885 10.4592 17.6595 11.4279 17.8503C12.3966 18.0411 13.4006 17.9432 14.3131 17.5689C15.2256 17.1946 16.0055 16.5607 16.5542 15.7474C17.1029 14.9342 17.3958 13.978 17.3958 12.9999C17.3948 11.6886 16.8684 10.4312 15.9321 9.504C14.9958 8.57675 13.7262 8.05541 12.4021 8.05444ZM12.4021 16.109C11.7805 16.109 11.1728 15.9264 10.6559 15.5844C10.139 15.2424 9.73619 14.7562 9.4983 14.1875C9.26041 13.6187 9.19816 12.9928 9.31944 12.389C9.44072 11.7852 9.74007 11.2306 10.1796 10.7952C10.6192 10.3599 11.1792 10.0635 11.7889 9.94334C12.3986 9.82324 13.0306 9.88488 13.6049 10.1205C14.1793 10.3561 14.6701 10.755 15.0155 11.2669C15.3609 11.7788 15.5452 12.3806 15.5452 12.9963C15.5452 13.8221 15.2142 14.6143 14.6248 15.1986C14.0355 15.7829 13.2361 16.1117 12.4021 16.1126V16.109Z" fill="black"/>
</svg>
