<svg width="22" height="22" viewBox="0 0 22 22" fill="none" xmlns="http://www.w3.org/2000/svg">
<path d="M22 10.3624C22 10.7924 22 11.2225 22 11.6525C21.9839 11.8084 21.9624 11.9642 21.9463 12.1147C21.6885 14.4315 20.8345 16.501 19.2768 18.2318C16.6558 21.1452 13.3794 22.3708 9.49069 21.9031C7.9277 21.715 6.48288 21.1667 5.15621 20.3174C5.00582 20.2207 4.88229 20.2153 4.72115 20.269C3.46969 20.6776 2.21822 21.0753 0.966751 21.4731C0.896927 21.4946 0.827102 21.5161 0.730422 21.543C1.16548 20.2475 1.57906 18.9897 2.01412 17.7427C2.08394 17.5384 2.06246 17.3933 1.94429 17.2159C0.843216 15.6409 0.220167 13.8886 0.048292 11.9857C-0.145068 9.81951 0.236281 7.75003 1.29976 5.84718C3.31392 2.235 6.40768 0.27303 10.5381 0.020392C12.708 -0.11399 14.749 0.418162 16.6074 1.54697C19.4648 3.28856 21.2158 5.81493 21.8335 9.11535C21.9033 9.52924 21.9463 9.94852 22 10.3624ZM14.5395 17.2159C14.9101 17.146 15.2217 17.1245 15.5117 17.0224C17.0532 16.4848 17.5796 15.7484 17.6333 14.3132C17.644 14.0767 17.5581 13.9208 17.3433 13.8187C16.5376 13.4371 15.7373 13.0393 14.9263 12.663C14.4751 12.4534 14.228 12.534 13.9326 12.9372C13.7285 13.2167 13.5298 13.4908 13.3149 13.765C12.9765 14.2004 12.7402 14.2541 12.2353 14.0498C10.393 13.2973 9.03415 12.0019 8.01901 10.3194C7.86325 10.0614 7.87936 9.91626 8.07809 9.67438C8.29294 9.41636 8.5239 9.1691 8.74411 8.91646C9.0073 8.61545 9.07712 8.30368 8.89987 7.91129C8.5239 7.0835 8.19089 6.23958 7.82565 5.40641C7.77194 5.28816 7.65378 5.14302 7.54098 5.11615C6.9609 4.97639 6.35934 4.94414 5.88131 5.34191C4.81246 6.21808 4.47408 7.39526 4.68356 8.7337C4.83932 9.72275 5.32272 10.5774 5.88668 11.3891C6.72458 12.5931 7.66989 13.7005 8.78708 14.6573C10.0278 15.7162 11.4673 16.4042 13.0141 16.8665C13.5244 17.017 14.0615 17.103 14.5395 17.2159Z" fill="white"/>
</svg>
